<mxfile host="app.diagrams.net" modified="2021-07-18T05:06:06.075Z" agent="5.0 (X11; Linux x86_64) AppleWebKit/537.36 (KHTML, like Gecko) Chrome/91.0.4472.114 Safari/537.36" etag="TiIMuxmZypPC9atI84PX" version="14.9.0" type="github">
  <diagram id="WSVtWr1x8tHoHqvTrsPi" name="Page-1">
    <mxGraphModel dx="981" dy="556" grid="1" gridSize="10" guides="1" tooltips="1" connect="1" arrows="1" fold="1" page="1" pageScale="1" pageWidth="2339" pageHeight="3300" background="#283618" math="0" shadow="0">
      <root>
        <mxCell id="0" />
        <mxCell id="1" parent="0" />
        <mxCell id="HncckDs_8DU729KPtUVX-73" style="edgeStyle=orthogonalEdgeStyle;curved=0;rounded=1;sketch=0;orthogonalLoop=1;jettySize=auto;html=1;entryX=0.547;entryY=-0.019;entryDx=0;entryDy=0;entryPerimeter=0;fontColor=#FEFAE0;strokeColor=#DDA15E;fillColor=#BC6C25;" edge="1" parent="1" target="HncckDs_8DU729KPtUVX-59">
          <mxGeometry relative="1" as="geometry">
            <mxPoint x="489" y="190" as="sourcePoint" />
            <Array as="points">
              <mxPoint x="489" y="230" />
            </Array>
          </mxGeometry>
        </mxCell>
        <mxCell id="HncckDs_8DU729KPtUVX-48" value="" style="shape=image;html=1;verticalAlign=top;verticalLabelPosition=bottom;labelBackgroundColor=#ffffff;imageAspect=0;aspect=fixed;image=https://cdn0.iconfinder.com/data/icons/octicons/1024/mark-github-128.png;rounded=0;sketch=0;fontColor=#FEFAE0;strokeColor=#DDA15E;fillColor=#BC6C25;" vertex="1" parent="1">
          <mxGeometry x="440" y="100" width="80" height="80" as="geometry" />
        </mxCell>
        <mxCell id="HncckDs_8DU729KPtUVX-49" value="&lt;b&gt;/blogs.json&lt;/b&gt;" style="text;html=1;strokeColor=none;fillColor=none;align=center;verticalAlign=middle;whiteSpace=wrap;rounded=0;sketch=0;fontColor=#FEFAE0;" vertex="1" parent="1">
          <mxGeometry x="500" y="100" width="120" height="40" as="geometry" />
        </mxCell>
        <mxCell id="HncckDs_8DU729KPtUVX-52" style="edgeStyle=orthogonalEdgeStyle;curved=0;rounded=1;sketch=0;orthogonalLoop=1;jettySize=auto;html=1;entryX=1;entryY=0.5;entryDx=0;entryDy=0;fontColor=#FEFAE0;strokeColor=#DDA15E;fillColor=#BC6C25;" edge="1" parent="1" source="HncckDs_8DU729KPtUVX-50" target="HncckDs_8DU729KPtUVX-49">
          <mxGeometry relative="1" as="geometry" />
        </mxCell>
        <mxCell id="HncckDs_8DU729KPtUVX-50" value="&lt;b&gt;&lt;font style=&quot;font-size: 14px&quot;&gt;HashNode&lt;/font&gt;&lt;/b&gt;" style="rounded=0;whiteSpace=wrap;html=1;sketch=0;fontColor=#FEFAE0;strokeColor=#DDA15E;fillColor=#BC6C25;" vertex="1" parent="1">
          <mxGeometry x="790" y="70" width="140" height="60" as="geometry" />
        </mxCell>
        <mxCell id="HncckDs_8DU729KPtUVX-51" value="&lt;b&gt;/home.json&lt;/b&gt;" style="text;html=1;strokeColor=none;fillColor=none;align=center;verticalAlign=middle;whiteSpace=wrap;rounded=0;sketch=0;fontColor=#FEFAE0;" vertex="1" parent="1">
          <mxGeometry x="500" y="140" width="120" height="40" as="geometry" />
        </mxCell>
        <mxCell id="HncckDs_8DU729KPtUVX-54" value="Blog URL" style="text;html=1;strokeColor=none;fillColor=none;align=center;verticalAlign=middle;whiteSpace=wrap;rounded=0;sketch=0;fontColor=#FEFAE0;" vertex="1" parent="1">
          <mxGeometry x="680" y="70" width="80" height="20" as="geometry" />
        </mxCell>
        <mxCell id="HncckDs_8DU729KPtUVX-57" style="edgeStyle=orthogonalEdgeStyle;curved=0;rounded=1;sketch=0;orthogonalLoop=1;jettySize=auto;html=1;entryX=1;entryY=0.5;entryDx=0;entryDy=0;fontColor=#FEFAE0;strokeColor=#DDA15E;fillColor=#BC6C25;" edge="1" parent="1" source="HncckDs_8DU729KPtUVX-55" target="HncckDs_8DU729KPtUVX-51">
          <mxGeometry relative="1" as="geometry" />
        </mxCell>
        <mxCell id="HncckDs_8DU729KPtUVX-55" value="&lt;b&gt;&lt;font style=&quot;font-size: 13px&quot;&gt;Store Home Page Data&amp;nbsp;&lt;/font&gt;&lt;/b&gt;" style="rounded=0;whiteSpace=wrap;html=1;sketch=0;fontColor=#FEFAE0;strokeColor=#DDA15E;fillColor=#BC6C25;" vertex="1" parent="1">
          <mxGeometry x="790" y="160" width="140" height="60" as="geometry" />
        </mxCell>
        <mxCell id="HncckDs_8DU729KPtUVX-58" value="&lt;b&gt;JSON&lt;/b&gt; Server" style="text;html=1;strokeColor=none;fillColor=none;align=center;verticalAlign=middle;whiteSpace=wrap;rounded=0;sketch=0;fontColor=#FEFAE0;" vertex="1" parent="1">
          <mxGeometry x="430" y="60" width="100" height="40" as="geometry" />
        </mxCell>
        <mxCell id="HncckDs_8DU729KPtUVX-64" style="edgeStyle=orthogonalEdgeStyle;curved=0;rounded=1;sketch=0;orthogonalLoop=1;jettySize=auto;html=1;fontColor=#FEFAE0;strokeColor=#DDA15E;fillColor=#BC6C25;" edge="1" parent="1" source="HncckDs_8DU729KPtUVX-59">
          <mxGeometry relative="1" as="geometry">
            <mxPoint x="480" y="190" as="targetPoint" />
          </mxGeometry>
        </mxCell>
        <mxCell id="HncckDs_8DU729KPtUVX-71" style="edgeStyle=orthogonalEdgeStyle;curved=0;rounded=1;sketch=0;orthogonalLoop=1;jettySize=auto;html=1;entryX=0;entryY=0.556;entryDx=0;entryDy=0;entryPerimeter=0;fontColor=#FEFAE0;strokeColor=#DDA15E;fillColor=#BC6C25;" edge="1" parent="1" source="HncckDs_8DU729KPtUVX-59" target="HncckDs_8DU729KPtUVX-67">
          <mxGeometry relative="1" as="geometry" />
        </mxCell>
        <mxCell id="HncckDs_8DU729KPtUVX-59" value="" style="rounded=0;whiteSpace=wrap;html=1;sketch=0;fontColor=#FEFAE0;strokeColor=#DDA15E;fillColor=#BC6C25;" vertex="1" parent="1">
          <mxGeometry x="380" y="280" width="200" height="80" as="geometry" />
        </mxCell>
        <mxCell id="HncckDs_8DU729KPtUVX-60" value="" style="shape=image;html=1;verticalAlign=top;verticalLabelPosition=bottom;labelBackgroundColor=#ffffff;imageAspect=0;aspect=fixed;image=https://cdn4.iconfinder.com/data/icons/logos-brands-5/24/react-128.png;rounded=0;sketch=0;fontColor=#FFFFFF;strokeColor=#FFFFFF;fillColor=#FFFFFF;" vertex="1" parent="1">
          <mxGeometry x="520" y="295" width="50" height="50" as="geometry" />
        </mxCell>
        <mxCell id="HncckDs_8DU729KPtUVX-61" value="&lt;b&gt;&lt;font style=&quot;font-size: 16px&quot;&gt;Next JS App&lt;/font&gt;&lt;/b&gt;" style="text;html=1;strokeColor=none;fillColor=none;align=center;verticalAlign=middle;whiteSpace=wrap;rounded=0;sketch=0;fontColor=#FEFAE0;" vertex="1" parent="1">
          <mxGeometry x="400" y="370" width="160" height="30" as="geometry" />
        </mxCell>
        <mxCell id="HncckDs_8DU729KPtUVX-62" value="&lt;b&gt;SSR&lt;/b&gt;" style="text;html=1;strokeColor=#000000;fillColor=none;align=center;verticalAlign=middle;whiteSpace=wrap;rounded=0;sketch=0;fontColor=#FEFAE0;" vertex="1" parent="1">
          <mxGeometry x="390" y="290" width="40" height="20" as="geometry" />
        </mxCell>
        <mxCell id="HncckDs_8DU729KPtUVX-63" value="&lt;b&gt;CSR&lt;/b&gt;" style="text;html=1;strokeColor=#000000;fillColor=none;align=center;verticalAlign=middle;whiteSpace=wrap;rounded=0;sketch=0;fontColor=#FEFAE0;" vertex="1" parent="1">
          <mxGeometry x="390" y="330" width="40" height="20" as="geometry" />
        </mxCell>
        <mxCell id="HncckDs_8DU729KPtUVX-65" value="&lt;b&gt;Static generation&lt;/b&gt;" style="text;html=1;strokeColor=none;fillColor=none;align=center;verticalAlign=middle;whiteSpace=wrap;rounded=0;sketch=0;fontColor=#FEFAE0;rotation=-90;" vertex="1" parent="1">
          <mxGeometry x="415" y="210" width="85" height="60" as="geometry" />
        </mxCell>
        <mxCell id="HncckDs_8DU729KPtUVX-66" value="&lt;b&gt;Fetch Data At Build Time&lt;/b&gt;" style="text;html=1;strokeColor=none;fillColor=none;align=center;verticalAlign=middle;whiteSpace=wrap;rounded=0;sketch=0;fontColor=#FEFAE0;" vertex="1" parent="1">
          <mxGeometry x="490" y="230" width="130" height="20" as="geometry" />
        </mxCell>
        <mxCell id="HncckDs_8DU729KPtUVX-72" style="edgeStyle=orthogonalEdgeStyle;curved=0;rounded=1;sketch=0;orthogonalLoop=1;jettySize=auto;html=1;fontColor=#FEFAE0;strokeColor=#DDA15E;fillColor=#BC6C25;" edge="1" parent="1" source="HncckDs_8DU729KPtUVX-67">
          <mxGeometry relative="1" as="geometry">
            <mxPoint x="580" y="310" as="targetPoint" />
            <Array as="points">
              <mxPoint x="580" y="310" />
            </Array>
          </mxGeometry>
        </mxCell>
        <mxCell id="HncckDs_8DU729KPtUVX-67" value="" style="shape=image;html=1;verticalAlign=top;verticalLabelPosition=bottom;labelBackgroundColor=#ffffff;imageAspect=0;aspect=fixed;image=https://cdn2.iconfinder.com/data/icons/whcompare-isometric-web-hosting-servers/50/web-browser-on-laptop-128.png;rounded=0;sketch=0;fontColor=#FEFAE0;strokeColor=#DDA15E;fillColor=#BC6C25;" vertex="1" parent="1">
          <mxGeometry x="790" y="270" width="90" height="90" as="geometry" />
        </mxCell>
        <mxCell id="HncckDs_8DU729KPtUVX-68" value="" style="shape=image;html=1;verticalAlign=top;verticalLabelPosition=bottom;labelBackgroundColor=#ffffff;imageAspect=0;aspect=fixed;image=https://cdn1.iconfinder.com/data/icons/logotypes/32/chrome-128.png;rounded=0;sketch=0;fontColor=#FEFAE0;strokeColor=#DDA15E;fillColor=#BC6C25;" vertex="1" parent="1">
          <mxGeometry x="890" y="300" width="40" height="40" as="geometry" />
        </mxCell>
        <mxCell id="HncckDs_8DU729KPtUVX-69" value="&lt;b&gt;&lt;font style=&quot;font-size: 15px&quot;&gt;Client&lt;/font&gt;&lt;/b&gt;" style="text;html=1;strokeColor=none;fillColor=none;align=center;verticalAlign=middle;whiteSpace=wrap;rounded=0;sketch=0;fontColor=#FEFAE0;" vertex="1" parent="1">
          <mxGeometry x="820" y="370" width="80" height="30" as="geometry" />
        </mxCell>
        <mxCell id="HncckDs_8DU729KPtUVX-70" value="&lt;b&gt;(Server)&lt;/b&gt;" style="text;html=1;strokeColor=none;fillColor=none;align=center;verticalAlign=middle;whiteSpace=wrap;rounded=0;sketch=0;fontColor=#FEFAE0;" vertex="1" parent="1">
          <mxGeometry x="455" y="400" width="50" height="20" as="geometry" />
        </mxCell>
        <mxCell id="HncckDs_8DU729KPtUVX-75" value="&lt;b&gt;Pre-Rendered HTML Page is Sent&lt;/b&gt;" style="text;html=1;strokeColor=none;fillColor=none;align=center;verticalAlign=middle;whiteSpace=wrap;rounded=0;sketch=0;fontColor=#FEFAE0;" vertex="1" parent="1">
          <mxGeometry x="600" y="325" width="180" height="35" as="geometry" />
        </mxCell>
        <mxCell id="HncckDs_8DU729KPtUVX-76" value="&lt;b&gt;Page request&lt;/b&gt;" style="text;html=1;strokeColor=none;fillColor=none;align=center;verticalAlign=middle;whiteSpace=wrap;rounded=0;sketch=0;fontColor=#FEFAE0;" vertex="1" parent="1">
          <mxGeometry x="610" y="280" width="150" height="30" as="geometry" />
        </mxCell>
      </root>
    </mxGraphModel>
  </diagram>
</mxfile>
